<?xml version="1.0" encoding="UTF-8" standalone="no"?>
<svg
   xmlns:dc="http://purl.org/dc/elements/1.1/"
   xmlns:cc="http://creativecommons.org/ns#"
   xmlns:rdf="http://www.w3.org/1999/02/22-rdf-syntax-ns#"
   xmlns:svg="http://www.w3.org/2000/svg"
   xmlns="http://www.w3.org/2000/svg"
   viewBox="0 0 693.05334 279.84"
   height="279.84"
   width="693.05334"
   xml:space="preserve"
   id="svg2"
   version="1.1"><metadata
     id="metadata8"><rdf:RDF><cc:Work
         rdf:about=""><dc:format>image/svg+xml</dc:format><dc:type
           rdf:resource="http://purl.org/dc/dcmitype/StillImage" /></cc:Work></rdf:RDF></metadata><defs
     id="defs6" /><g
     transform="matrix(1.3333333,0,0,-1.3333333,0,279.84)"
     id="g10"><g
       transform="scale(0.1)"
       id="g12"><path
         id="path14"
         style="fill:#231f20;fill-opacity:1;fill-rule:nonzero;stroke:none"
         d="m 2029.33,954.82 -4.39,-2.429 c -53.73,-39.711 -98.22,-76.512 -133.88,-109.942 -43.59,-41.168 -78.83,-79.429 -105.68,-116.25 -24.24,-31.461 -43.61,-60.519 -57.25,-88.14 -12.78,-25.18 -22.46,-49.387 -28.18,-72.161 -5.73,-22.277 -8.39,-42.628 -7.06,-60.546 1.33,-22.774 10.13,-40.672 25.55,-54.231 5.73,-4.359 11.88,-8.723 18.49,-12.609 12.78,-7.25 28.18,-11.141 46.24,-12.582 25.98,-1.942 54.16,1.929 84.1,11.621 87.64,27.129 162.06,75.558 229,145.289 21.13,22.769 38.74,46.992 53.28,72.648 11.88,20.84 20.25,41.184 25.09,60.551 10.58,42.141 6.18,81.852 -13.21,118.652 -7.91,15.028 -17.61,29.071 -29.06,42.141 -26.42,29.547 -60.31,56.188 -103.04,77.988 z m -18.48,4.852 3.06,2.906 c -6.6,2.422 -9.67,4.82 -10.12,4.82 -26.43,13.102 -59.89,24.711 -102.16,37.782 -48.88,15.5 -113.61,32.46 -194.65,53.28 -47.55,11.63 -80.58,20.35 -100.4,26.64 -20.69,7.27 -37.87,14.05 -52.39,21.79 -14.55,7.76 -27.31,15.99 -36.12,26.17 -18.94,19.37 -29.07,42.61 -30.37,70.23 -0.9,14.05 0.43,29.06 3.51,44.07 5.73,31 18.49,61.5 36.1,92.99 19.82,34.4 43.61,66.85 70.46,98.33 34.79,40.67 68.7,74.09 102.61,101.22 71.33,55.21 146.21,95.9 225.04,121.57 25.09,8.23 50.19,14.05 74.85,17.43 23.33,3.4 42.7,3.4 57.25,0.98 10.57,-1.94 20.24,-4.85 27.3,-9.21 24.66,-12.58 36.1,-33.9 34.34,-63.93 -0.43,-9.69 -2.19,-21.32 -5.73,-33.42 -5.28,-17.92 -10.55,-34.86 -18.92,-48.92 -6.6,-13.56 -16.3,-31.48 -28.63,-54.72 l -10.57,-15.99 c -2.19,-3.87 -5.28,-6.78 -7.49,-8.72 -3.95,-2.91 -8.36,-3.4 -13.21,-1.93 -4.85,1.44 -7.04,5.31 -8.79,10.65 -1.34,4.36 -1.34,8.23 -0.88,11.63 4.82,25.66 12.76,46 23.76,63.44 l 8.82,9.7 c 2.63,2.4 5.72,2.88 9.24,0.95 3.09,-1.93 4.85,-5.32 4.4,-9.67 0,-0.98 -0.43,-3.4 -1.31,-7.27 l -2.21,-8.25 c 0.88,-0.47 2.21,0.49 3.52,2.42 11.9,21.82 21.15,43.61 26.87,65.4 3.52,13.56 5.28,24.7 5.28,35.84 -0.43,16.95 -7.92,29.53 -22.01,37.78 -8.81,4.83 -19.39,7.74 -31.27,9.19 -16.3,1.95 -35.24,0 -55.04,-3.38 -41.84,-7.27 -86.33,-22.77 -135.63,-47.48 -85.43,-42.13 -158.98,-97.81 -220.62,-166.6 -26.88,-30.52 -50.21,-60.05 -70.91,-92.52 -17.61,-26.15 -31.7,-52.3 -42.28,-78.45 -8.36,-19.37 -13.64,-37.29 -15.85,-53.77 -1.31,-10.65 -1.31,-20.34 0,-29.53 2.21,-16.47 8.82,-30.53 18.94,-41.67 8.37,-10.16 18.94,-18.39 32.58,-26.15 14.54,-8.23 32.15,-15.99 52.85,-23.24 21.13,-7.27 49.31,-14.05 85.88,-23.25 84.98,-19.86 147.95,-35.85 190.23,-47.46 55.03,-15.99 102.15,-33.42 141.36,-52.319 l 3.07,-1.441 8.36,6.781 c 60.79,45.999 110.98,81.359 150.61,106.559 12.34,8.22 27.31,16.94 46.24,27.11 14.53,8.24 28.62,13.09 41.4,15.02 h 16.73 c 1.76,0 3.97,-0.49 6.16,-0.97 2.21,-0.5 3.54,-2.43 3.97,-4.85 0,-2.42 -1.31,-4.36 -3.97,-5.81 -0.43,0 -1.31,0 -2.64,-0.48 -15.85,-1.45 -34.79,-7.74 -56.8,-19.38 -19.39,-9.69 -42.27,-24.21 -69.15,-42.13 -33.45,-22.77 -72.64,-50.37 -120.21,-84.76 -0.43,-0.489 -1.31,-1.45 -4.4,-3.391 0,-2.418 0.88,-3.891 3.09,-4.348 0.43,-0.492 0.88,-0.492 1.31,-0.492 21.15,-12.117 40.51,-25.668 56.81,-39.23 19.82,-15.5 36.1,-32.457 50.2,-50.387 9.26,-13.07 16.74,-26.152 23.35,-39.711 19.8,-41.652 22.89,-84.742 10.12,-129.312 -5.73,-21.321 -14.97,-42.129 -28.63,-64.899 -15.4,-25.672 -33.46,-49.879 -55.91,-71.691 -64.31,-67.321 -139.16,-115.739 -225.04,-144.321 -24.22,-8.25 -48,-13.07 -71.34,-15.027 -25.97,-2.422 -49.31,0.981 -70.89,9.211 -11.02,5.328 -20.69,10.18 -29.51,17.43 -20.25,16.968 -31.27,39.707 -33.03,68.777 -1.31,17.922 1.33,37.781 6.61,61.031 6.6,25.18 16.73,51.352 30.39,78.45 18.94,36.339 43.15,73.14 73.09,110.429 46.25,56.192 97.32,106.071 152.37,149.672 11.89,8.231 33.03,25.18 63.41,49.879 l 3.54,2.922" /><path
         id="path16"
         style="fill:#231f20;fill-opacity:1;fill-rule:nonzero;stroke:none"
         d="m 2726.29,1469.77 c 0,-1.68 -0.5,-3.39 -2.05,-5.07 -1.52,-1.68 -3.07,-2.82 -5.12,-2.82 -1.02,-0.57 -3.59,-0.57 -6.16,0 -6.14,0 -14.85,0 -25.62,0.57 -42.53,0.57 -64.59,1.11 -66.13,1.11 -57.4,0.57 -127.1,-0.54 -209.63,-3.93 -30.24,-1.14 -46.64,-2.25 -49.71,-2.25 -1.55,-11.29 -1.55,-22 -2.07,-30.44 -1.52,-65.41 -2.55,-113.32 -3.07,-143.78 -0.5,-20.86 0.52,-58.05 1.55,-111.06 0.5,-15.22 1.52,-49.05 3.59,-101.46 1.52,-42.86 3.57,-79.492 6.64,-111.628 1.55,-13.543 3.6,-23.692 7.19,-30.442 0.5,-1.14 1.02,-2.25 1.02,-3.39 0.51,-3.371 0,-5.649 -2.04,-7.899 -1.55,-2.25 -3.6,-2.812 -6.17,-2.25 -2.54,0 -5.12,1.141 -8.19,3.391 -5.11,5.066 -9.73,12.398 -12.3,22.539 -2.55,11.289 -4.62,25.937 -6.14,45.66 -3.08,36.649 -4.1,85.699 -5.13,147.709 -0.52,27.07 -0.52,62.02 -0.52,105.42 -0.52,54.13 -0.52,87.95 0,100.35 0.52,31.58 2.57,69.91 6.14,116.14 -1.52,0 -24.09,-1.69 -69.18,-5.65 -28.71,-2.25 -48.18,-4.5 -59.46,-5.07 -3.08,-0.55 -6.15,0 -8.71,0.57 -3.08,1.14 -5.65,3.39 -6.67,6.78 -1.03,3.37 -0.5,6.76 1.02,10.15 2.05,3.36 5.12,6.75 9.74,8.44 10.76,4.52 22.04,7.32 34.35,8.46 4.09,0.56 7.17,0 9.22,-2.26 2.56,-2.25 5.13,-5.64 8.2,-10.14 19.48,1.12 47.17,3.39 82.02,5.64 0,0 0,1.11 0.5,1.69 0,0.56 0,1.13 0,1.68 3.09,40.61 7.69,77.23 13.85,110.49 4.1,20.32 8.19,38.36 13.33,52.44 2.05,6.21 3.58,10.15 5.62,12.4 3.1,5.07 6.67,7.32 11.29,6.78 4.62,-0.57 7.69,-3.39 9.23,-9.03 1.53,-2.82 2.55,-6.2 2.55,-9.01 1.02,-19.75 0.53,-40.04 -3.07,-60.9 -0.5,-3.94 -1.53,-7.33 -3.07,-11.27 -2.05,-2.82 -4.1,-4.52 -6.14,-4.52 -2.58,0 -5.14,1.7 -6.67,3.96 -0.52,0.56 -1.54,2.82 -4.62,7.89 -2.05,-7.89 -4.09,-21.43 -6.14,-40.58 -3.09,-17.5 -4.62,-34.97 -6.17,-51.87 0,-1.14 0,-1.71 0,-2.83 0,-0.56 0,-1.7 0,-2.82 0,-1.68 0,-2.81 0,-3.39 0,0 1.03,0 2.05,0 1.55,0.58 2.57,0.58 4.12,0.58 41.51,3.38 66.11,5.07 72.25,5.07 69.73,3.39 120.46,6.21 151.21,6.21 28.72,0 47.17,0 54.85,-0.57 5.65,-0.57 26.66,-2.82 63.04,-5.64 3.09,-0.57 6.17,-1.14 9.24,-1.69 3.59,-1.13 6.14,-3.96 6.14,-8.46" /><path
         id="path18"
         style="fill:#231f20;fill-opacity:1;fill-rule:nonzero;stroke:none"
         d="m 2680.73,1082.9 c -1.52,20.86 -4.09,40.59 -7.16,56.94 0,0.55 -0.52,2.26 -2.05,5.62 l -2.05,-0.55 c -1.04,-1.13 -3.59,-3.38 -7.18,-6.2 -32.29,-29.87 -66.64,-67.66 -102.51,-113.32 -32.81,-41.718 -60.49,-83.992 -83.56,-126.281 -29.21,-54.121 -50.23,-109.379 -63.56,-163.5 -9.22,-36.621 -12.81,-72.16 -10.24,-105.418 1.53,-18.589 5.12,-34.941 11.78,-49.05 11.79,-22.539 28.72,-31.551 52.28,-27.051 10.26,2.262 20.5,6.199 30.76,12.969 8.71,5.652 17.42,12.972 26.66,23.121 12.29,12.398 24.59,28.75 37.92,48.468 11.29,17.481 24.09,39.481 37.93,67.09 31.77,62.024 54.34,122.903 66.63,181.543 8.21,40.59 13.33,77.778 14.35,111.059 2.05,30.99 1.56,59.2 0,84.56 z m 87.16,149.96 c 1.02,-2.27 0,-4.52 -2.07,-5.64 -1.02,0 -3.08,-1.13 -6.14,-3.95 -3.6,-1.69 -6.14,-3.37 -7.17,-5.08 -13.86,-9.57 -34.87,-27.62 -63.07,-54.12 0.53,-5.07 0.53,-7.89 0.53,-7.89 11.26,-54.69 15.38,-105.99 14.36,-155.04 -1.03,-61.992 -10.27,-122.89 -28.71,-182.652 -21.02,-68.769 -49.21,-128.539 -85.09,-180.949 -14.35,-20.859 -29.73,-38.898 -45.11,-54.117 -15.38,-14.672 -31.78,-25.934 -47.66,-33.832 -11.8,-5.641 -23.59,-8.461 -35.37,-9.602 -24.62,-1.679 -43.07,9.032 -55.35,31.582 -6.67,11.852 -11.29,25.36 -13.86,41.149 -3.59,21.429 -3.59,46.23 -0.5,72.16 4.1,40.59 15.38,84.562 32.81,131.359 27.66,72.731 65.6,140.383 113.79,202.942 24.59,31.01 49.7,59.2 76.87,86.83 6.66,6.2 15.37,15.22 26.66,26.49 11.28,11.85 18.45,19.17 22.54,22.56 0,0.57 1.03,1.12 4.12,3.37 -5.64,25.93 -13.33,47.93 -22.57,65.97 -6.14,11.83 -12.3,21.98 -19.47,29.87 -6.14,6.78 -12.3,11.28 -17.95,14.68 -8.71,5.07 -16.9,3.93 -24.59,-2.82 -3.59,-3.39 -6.66,-6.79 -9.73,-10.72 -5.65,-7.89 -12.31,-17.47 -20,-28.19 -11.79,-17.49 -25.12,-32.71 -38.45,-45.68 -5.12,-5.07 -11.26,-10.69 -18.45,-15.76 -3.07,-2.82 -7.17,-5.07 -11.28,-6.78 -11.78,-3.94 -20.5,-0.57 -26.14,11.85 -2.55,4.51 -4.1,10.15 -4.59,15.76 -3.1,24.82 -1.05,46.8 7.16,65.41 1.55,5.07 4.62,10.14 8.19,15.79 1.05,2.25 4.12,5.07 7.19,6.75 4.1,3.4 8.71,3.4 13.33,0 4.59,-3.36 6.14,-7.89 4.59,-13.51 -0.49,-2.27 -2.04,-6.78 -4.59,-12.42 -1.03,-2.25 -2.57,-6.18 -5.64,-12.4 -2.57,-6.18 -4.62,-10.14 -5.64,-13.53 -4.1,-10.15 -6.15,-20.84 -6.15,-33.26 0,-3.94 0.51,-6.76 0.51,-8.44 1.02,-7.9 4.62,-10.15 10.25,-7.9 3.6,1.69 6.67,3.37 8.72,5.64 4.61,2.8 8.19,6.19 12.8,9.58 13.34,12.4 25.12,25.93 35.38,41.16 2.05,2.82 5.64,7.32 10.24,14.65 4.11,6.78 8.21,11.28 11.28,15.21 4.09,6.21 8.22,11.86 12.31,15.79 10.24,11.29 23.57,14.1 38.45,9.58 7.16,-2.25 13.83,-6.75 21,-13.51 7.68,-6.78 14.87,-15.79 21.54,-27.07 9.21,-15.22 17.42,-33.83 25.12,-56.95 0.49,-2.25 1.52,-5.07 3.06,-8.44 l 1.55,-1.7 7.16,6.21 c 23.58,21.41 35.88,32.12 36.91,33.26 5.63,4.5 12.3,9.58 19.47,14.08 2.07,1.71 6.16,3.39 12.3,4.53 3.08,1.11 4.62,0.54 5.15,-2.26" /><path
         id="path20"
         style="fill:#231f20;fill-opacity:1;fill-rule:nonzero;stroke:none"
         d="m 2986.71,1226.09 c 0,-1.69 -1.03,-5.65 -3.07,-10.72 -11.78,-32.12 -27.68,-70.46 -47.68,-115.56 -24.07,-54.12 -45.09,-100.919 -63.54,-140.939 -4.62,-10.711 -10.26,-21.43 -16.4,-32.141 -4.12,-7.332 -8.71,-12.968 -14.88,-18.589 -13.83,-12.969 -27.66,-12.422 -41.52,1.121 -5.64,5.07 -9.74,11.828 -14.85,21.429 -6.17,10.141 -10.77,23.68 -15.38,38.329 -8.72,28.179 -14.88,59.76 -18.45,94.7 -4.62,45.12 -4.62,99.24 -0.53,162.37 5.65,81.19 17.43,165.75 34.85,254.27 3.6,15.21 6.67,32.12 10.27,50.16 3.59,17.46 7.68,37.21 12.3,58.62 4.6,21.43 7.7,37.79 10.76,49.05 0.5,5.07 2.06,11.85 3.6,20.29 2.05,8.47 3.07,14.67 4.09,17.49 0.51,5.62 2.05,9.58 3.08,13.52 1.02,3.39 2.56,6.21 3.59,8.46 3.57,5.07 7.69,7.89 12.8,7.33 4.62,0 8.72,-3.37 11.79,-9.01 1.55,-3.39 3.08,-6.78 3.59,-11.29 1.56,-9.57 1.56,-16.9 1.56,-21.43 0,-11.26 0,-22.54 -1.56,-34.37 -0.51,-5.07 -2.56,-10.14 -4.62,-15.79 -2.04,-5.07 -5.11,-9.03 -7.68,-10.14 -2.55,-1.71 -7.69,-1.71 -13.83,0 0,-1.71 -1.02,-5.64 -2.58,-12.97 -2.04,-7.33 -3.06,-12.4 -4.09,-16.36 -13.83,-65.95 -25.63,-135.86 -36.4,-209.16 -3.07,-20.28 -6.67,-48.47 -9.73,-83.42 -3.6,-32.71 -6.14,-61.44 -7.7,-85.69 -3.06,-54.12 -3.06,-104.85 1.56,-151.08 2.54,-30.46 7.68,-56.39 14.85,-79.511 2.05,-8.438 6.16,-17.469 10.26,-29.297 2.04,-3.961 5.12,-8.461 9.21,-12.961 6.67,-9.039 14.36,-9.582 23.6,-2.262 3.06,3.371 6.66,6.762 9.2,10.152 4.62,6.75 8.22,12.391 11.29,18.039 8.22,16.329 14.36,29.301 18.45,38.899 8.21,18.581 16.92,38.901 25.64,59.191 9.21,21.41 18.95,45.09 29.73,71.02 10.76,25.37 19.47,45.66 25.62,59.77 3.59,7.89 10.26,22.54 19.47,45.09 1.55,3.39 3.08,6.21 4.12,7.89 2.04,3.39 4.09,3.96 7.17,2.27 2.04,-1.7 3.06,-3.95 2.04,-6.77" /><path
         id="path22"
         style="fill:#231f20;fill-opacity:1;fill-rule:nonzero;stroke:none"
         d="m 2995.88,1300.5 c -1.54,2.25 -2.57,5.64 -2.57,8.46 0.52,3.39 1.54,6.21 3.59,8.47 2.57,2.82 5.12,3.36 7.17,3.36 3.09,0 5.14,-1.68 7.19,-3.94 1.03,-2.25 2.04,-5.06 2.04,-8.46 -1.01,-3.36 -2.04,-6.75 -4.09,-9.01 -2.05,-2.25 -5.14,-3.39 -7.19,-3.39 -2.05,0.58 -4.6,2.26 -6.14,4.51 z m 480.78,-69.34 c -0.5,-0.57 -2.05,-2.25 -5.64,-4.51 -21.52,-15.22 -34.33,-23.68 -37.92,-25.93 -17.43,-11.83 -34.33,-19.72 -50.74,-21.98 -17.45,-3.38 -32.8,1.12 -46.13,11.27 -9.24,7.89 -18.45,16.92 -27.68,29.32 -1.03,1.11 -2.06,3.37 -4.1,5.64 -1.55,2.25 -3.07,4.51 -4.62,6.19 -1.55,2.82 -2.57,4.5 -4.1,5.64 -2.57,3.93 -4.61,6.21 -5.63,8.46 -4.1,3.37 -7.19,3.37 -11.29,0.55 -4.09,-2.8 -7.69,-6.76 -10.24,-10.15 -4.12,-5.07 -12.3,-14.65 -23.59,-29.87 -0.5,-0.56 -3.07,-4.5 -8.71,-11.28 -4.62,-6.76 -8.71,-11.26 -11.79,-14.65 -3.59,-5.07 -7.18,-8.46 -11.28,-10.72 -4.62,-3.36 -8.71,-3.93 -13.33,-2.82 -3.57,2.26 -6.67,5.64 -8.19,11.29 -2.04,5.07 -3.07,11.28 -3.07,18.04 0,27.62 2.04,52.98 7.17,74.41 2.57,14.65 9.23,47.37 18.97,98.1 l 1.52,9.02 -5.12,-2.27 c -8.18,-8.44 -14.35,-14.08 -17.42,-17.47 -11.29,-12.96 -25.64,-31.01 -41.52,-52.41 -20.49,-28.21 -44.58,-65.98 -72.78,-111.64 -11.28,-19.18 -22.04,-36.07 -32.8,-52.43 -4.62,-7.32 -9.75,-14.08 -16.4,-20.29 -4.61,-4.51 -8.72,-7.33 -14.35,-10.72 -10.76,-5.07 -21.03,-3.36 -30.26,5.64 -5.12,5.08 -9.74,11.29 -13.3,20.3 -3.6,10.14 -5.65,20.86 -6.18,31.57 -1.52,27.62 2.05,54.12 12.32,79.49 1.01,3.39 2.57,6.21 4.61,10.71 1.53,1.68 3.07,3.39 4.6,4.5 2.56,2.26 5.14,2.83 7.68,2.26 2.58,-1.68 4.62,-3.37 5.15,-6.76 0.5,-3.96 0.5,-7.89 0,-12.4 -0.53,-3.96 -1.55,-9.03 -2.57,-14.67 -1.03,-5.07 -2.05,-11.26 -3.08,-16.9 -1.02,-5.65 -2.04,-10.15 -3.06,-14.65 -3.6,-22.57 -4.62,-39.47 -3.6,-50.75 1.02,-6.19 1.55,-10.72 3.07,-14.09 2.57,-7.32 5.64,-11.85 10.76,-13.53 4.62,-1.69 9.24,-1.12 15.38,3.38 4.62,2.83 8.22,6.76 11.78,10.72 6.67,7.33 11.81,14.65 15.91,20.86 8.71,12.95 18.97,29.3 30.75,49.03 32.8,53 60.49,94.72 83.04,125.16 8.19,10.72 20.5,27.05 38.94,49.05 4.12,5.07 8.71,9.58 14.36,14.08 5.12,3.96 9.24,5.07 14.35,3.39 4.1,-1.68 7.17,-5.64 9.24,-12.4 1.03,-4.5 2.04,-11.28 2.04,-19.18 0,-10.14 -2.04,-26.47 -5.63,-48.47 -2.58,-15.22 -6.17,-37.2 -11.79,-65.38 -5.14,-28.21 -8.21,-46.25 -9.24,-53.58 0,-0.54 0,-2.25 0,-6.76 1.56,0 3.08,1.14 5.12,3.94 6.17,7.9 11.81,14.67 16.93,20.32 1.55,2.25 3.6,5.61 6.66,9.01 2.57,3.38 5.12,6.75 7.69,10.14 2.55,3.39 4.62,6.75 6.67,9.03 5.12,6.19 10.23,11.26 14.85,14.65 11.79,10.72 23.6,10.15 34.86,-2.25 2.56,-3.39 7.68,-9.6 14.35,-19.18 9.74,-13.53 17.95,-23.11 25.12,-30.44 1.54,-1.13 3.59,-2.82 5.12,-3.93 2.07,-1.71 4.12,-2.82 6.16,-3.96 2.05,-1.11 4.1,-2.25 6.14,-2.82 2.57,-0.57 5.15,-1.12 7.19,-1.12 6.14,-0.57 12.28,0 18.46,1.12 8.71,1.71 19.99,6.78 32.27,14.1 21.54,11.83 36.4,20.3 46.13,25.94 3.6,1.68 6.67,3.36 8.72,3.36 2.05,0.57 3.6,0 4.1,-2.25 1.02,-1.68 1.02,-3.37 -1.03,-5.07" /><path
         id="path24"
         style="fill:#231f20;fill-opacity:1;fill-rule:nonzero;stroke:none"
         d="m 3657.52,1134.77 c 0,0 -1.03,3.37 -2.55,8.44 l -5.64,-3.94 c -33.83,-37.21 -64.58,-74.41 -91.25,-111.63 -34.85,-47.91 -61.52,-94.699 -79.96,-140.929 -17.43,-41.152 -27.67,-79.481 -30.76,-113.879 -3.07,-25.371 -2.05,-47.91 3.09,-67.66 3.08,-12.973 8.19,-23.684 14.36,-32.692 9.21,-12.968 21,-20.859 35.87,-24.25 12.29,-2.25 25.62,-0.539 39.97,4.532 12.82,4.5 25.64,11.258 37.92,21.968 20.53,16.93 37.95,37.77 52.31,63.7 14.35,25.941 25.61,54.691 33.83,86.269 7.68,29.321 12.28,62.012 14.35,98.102 2.05,33.25 1.03,68.187 -2.07,105.419 -2.55,31 -9.22,66.51 -19.47,106.55 z m 83.04,92.45 -3.58,-3.38 c -16.4,-13.54 -25.11,-20.87 -26.14,-21.98 -3.1,-2.82 -15.9,-15.79 -39.99,-40.04 0.52,-5.64 1.54,-8.46 2.05,-9.01 8.71,-37.22 14.35,-64.83 16.92,-82.88 2.55,-16.92 4.1,-32.71 5.12,-46.79 2.57,-36.652 2.57,-72.16 0.52,-106.562 -4.11,-54.117 -14.87,-102.598 -33.32,-144.887 -13.84,-32.691 -31.26,-60.871 -53.3,-83.992 -14.88,-16.347 -30.76,-28.75 -46.66,-37.758 -17.93,-9.031 -34.86,-13.543 -51.26,-13.543 -25.62,1.141 -45.09,13.543 -58.42,36.082 -8.21,14.661 -13.33,31.579 -15.38,51.872 -3.07,30.437 0,64.269 10.24,100.918 11.28,44.519 30.26,90.199 55.37,135.859 23.57,41.721 54.33,85.121 93.3,130.211 6.14,7.89 15.87,18.61 28.18,33.29 12.81,14.64 19.98,23.66 22.05,25.91 0,0 2.04,2.82 5.62,6.78 -2.55,7.32 -3.58,11.82 -3.58,12.96 -7.19,25.37 -11.28,40.59 -13.33,46.8 -1.54,4.5 -3.59,10.14 -6.14,14.08 -3.6,5.07 -7.19,6.21 -12.31,2.82 -4.62,-3.39 -9.73,-7.89 -15.38,-13.54 -3.06,-2.25 -8.21,-7.89 -16.92,-16.33 -8.19,-8.46 -14.85,-15.22 -19.97,-19.75 -6.17,-5.62 -16.93,-14.65 -30.76,-25.93 -6.17,-4.51 -12.31,-7.89 -19.48,-10.14 -4.11,-0.55 -6.16,-1.12 -6.66,-1.12 -11.28,-1.14 -17.43,3.94 -18.97,15.79 -0.53,3.36 0,7.89 0.52,13.51 1.52,10.71 4.6,20.86 10.76,30.46 17.43,31.55 38.94,56.37 64.59,74.41 8.71,6.76 17.42,10.72 26.13,11.83 4.1,0.57 7.7,0 11.79,-1.11 5.12,-1.14 8.71,-5.08 11.29,-10.72 3.06,-6.21 3.06,-12.39 -1.03,-18.04 -3.09,-5.64 -8.21,-8.46 -14.35,-6.77 -10.76,2.25 -22.57,-1.12 -35.9,-10.15 -19.47,-11.83 -37.93,-31.01 -54.33,-56.37 -2.05,-3.4 -4.09,-7.9 -6.14,-12.4 -0.53,-3.4 -1.03,-6.76 -1.03,-11.29 0,0 0.5,-2.25 1.03,-6.75 4.09,-1.14 8.19,-0.57 14.85,2.25 6.67,2.25 14.89,7.89 23.6,15.22 21.52,17.47 42.54,37.79 62.01,60.9 4.09,5.07 7.17,7.87 8.19,8.44 4.11,4.53 9.23,6.78 14.36,6.78 5.63,0 10.25,-2.25 14.87,-6.78 3.57,-3.37 6.67,-7.9 9.22,-13.52 1.54,-3.38 3.59,-9.59 6.66,-18.03 1.02,-3.96 3.08,-9.6 5.12,-16.93 2.07,-7.89 3.09,-12.4 4.12,-15.22 0,-0.57 1.02,-2.82 3.06,-7.32 1.03,1.11 4.11,3.93 8.2,7.89 2.07,2.82 7.68,7.89 16.4,16.9 8.71,8.47 14.88,14.68 19.5,19.18 6.14,6.76 12.81,10.72 19.47,13.53 2.55,0.55 4.62,1.12 7.17,1.12 1.02,0 2.05,-0.57 3.06,-2.82 0,-1.11 0,-2.82 -1.01,-3.94" /><path
         id="path26"
         style="fill:#231f20;fill-opacity:1;fill-rule:nonzero;stroke:none"
         d="m 0,1574.3 v 25.83 c 30.0117,-5.02 63.9258,-9.33 96.543,-9.33 60.012,0 90.02,22.96 90.02,95.42 v 408.24 h 72.414 v -392.45 c 0,-113.36 -63.938,-141.34 -143.516,-141.34 -43.0469,0 -80.8907,5.74 -115.461,13.63" /><path
         id="path28"
         style="fill:#231f20;fill-opacity:1;fill-rule:nonzero;stroke:none"
         d="m 412.883,2094.46 h 318.984 v -28.69 H 485.938 v -214.53 h 223.75 v -28.69 h -223.75 v -228.87 h 250.488 v -28.71 H 412.883 v 529.49" /><path
         id="path30"
         style="fill:#231f20;fill-opacity:1;fill-rule:nonzero;stroke:none"
         d="m 1000.59,1764.43 -171.567,330.03 h 82.188 l 148.079,-288.42 148.73,288.42 h 33.91 L 1073.64,1767.3 v -202.33 h -73.05 v 199.46" /><path
         id="path32"
         style="fill:#231f20;fill-opacity:1;fill-rule:nonzero;stroke:none"
         d="m 1353.45,1755.1 h 186.56 l -93.94,282.69 z m 82.84,339.36 h 65.89 l 176.78,-529.49 h -75.68 l -53.48,161.43 h -206.14 l -52.83,-161.43 h -29.35 l 174.81,529.49" /><path
         id="path34"
         style="fill:#231f20;fill-opacity:1;fill-rule:nonzero;stroke:none"
         d="m 1971.13,1575.02 v 25.11 c 42.41,-5.02 88.07,-9.33 138.29,-9.33 95.25,0 147.43,30.13 147.43,102.6 0,33 -8.48,53.09 -28.7,68.16 -19.58,16.5 -52.18,25.83 -100.45,42.33 -47.63,15.07 -85.46,29.42 -110.9,50.94 -26.1,22.24 -39.8,53.09 -39.8,99.01 0,112.64 82.85,144.93 187.22,144.93 32.62,0 82.2,-5.02 126.55,-13.63 v -25.83 c -37.19,5.02 -78.93,9.33 -116.11,9.33 -80.24,0 -130.46,-23.68 -130.46,-92.56 0,-31.56 8.48,-50.94 26.74,-64.57 20.22,-15.07 52.19,-27.26 98.5,-41.62 48.92,-15.06 85.45,-28.69 111.55,-49.5 28.7,-23.68 43.04,-55.24 43.04,-104.75 0,-114.79 -97.18,-154.97 -202.86,-154.97 -47.62,0 -101.11,5.02 -150.04,14.35" /><path
         id="path36"
         style="fill:#231f20;fill-opacity:1;fill-rule:nonzero;stroke:none"
         d="m 2622.77,1790.26 c 81.54,0 112.2,38.74 112.2,139.9 0,97.58 -30.66,135.61 -116.11,135.61 h -88.72 v -275.51 z m -165.69,304.2 h 174.82 c 107.63,0 178.08,-49.5 178.08,-162.86 0,-111.92 -65.22,-169.32 -174.16,-169.32 h -105.68 v -197.31 h -73.06 v 529.49" /><path
         id="path38"
         style="fill:#231f20;fill-opacity:1;fill-rule:nonzero;stroke:none"
         d="m 2939.09,2094.46 h 318.99 v -28.69 h -245.93 v -214.53 h 223.75 v -28.69 h -223.75 v -228.87 h 250.49 v -28.71 h -323.55 v 529.49" /><path
         id="path40"
         style="fill:#231f20;fill-opacity:1;fill-rule:nonzero;stroke:none"
         d="m 3425.68,1985.41 v -420.44 h -29.35 v 529.49 h 43.71 l 288.32,-408.95 v 408.95 h 29.36 v -529.49 h -39.15 l -292.89,420.44" /><path
         id="path42"
         style="fill:#231f20;fill-opacity:1;fill-rule:nonzero;stroke:none"
         d="m 3896.61,1829 c 0,187.98 84.14,269.77 234.84,269.77 36.52,0 75.01,-5.02 112.19,-13.63 v -25.83 c -30.01,5.74 -61.32,9.33 -91.98,9.33 -134.37,0 -178.73,-61.7 -178.73,-238.2 0,-176.5 44.36,-239.64 178.73,-239.64 32.62,0 61.32,4.31 91.98,9.33 v -25.83 c -37.84,-8.61 -74.36,-13.63 -112.19,-13.63 -150.7,0 -234.84,80.35 -234.84,268.33" /><path
         id="path44"
         style="fill:#231f20;fill-opacity:1;fill-rule:nonzero;stroke:none"
         d="m 4379.93,2094.46 h 318.99 v -28.69 h -245.93 v -214.53 h 223.75 v -28.69 h -223.75 v -228.87 h 250.49 v -28.71 h -323.55 v 529.49" /><path
         id="path46"
         style="fill:#231f20;fill-opacity:1;fill-rule:nonzero;stroke:none"
         d="m 5006.12,1806.76 c 83.5,0 116.11,34.44 116.11,131.3 0,94.7 -32.61,127.71 -120.02,127.71 h -93.94 v -259.01 z m -1.96,-29.41 h -95.89 v -212.38 h -71.1 v 529.49 h 170.25 c 114.81,0 188.52,-46.63 188.52,-156.4 0,-83.23 -43.7,-134.17 -116.76,-152.82 l 118.72,-220.27 h -78.28 l -115.46,212.38" /><path
         id="path48"
         style="fill:#231f20;fill-opacity:1;fill-rule:nonzero;stroke:none"
         d="m 711.789,126.238 c 0,-4.918 0.906,-8.976 2.723,-12.187 1.816,-3.223 4.25,-5.86 7.316,-7.942 3.067,-2.089 6.621,-3.8 10.664,-5.14 4.043,-1.3284 8.262,-2.5901 12.645,-3.7502 5.898,-1.5782 11.699,-3.3399 17.414,-5.25 5.703,-1.9297 10.789,-4.5782 15.254,-7.9493 4.461,-3.3789 8.074,-7.7812 10.828,-13.2109 2.765,-5.418 4.14,-12.3789 4.14,-20.8867 0,-8.6836 -1.492,-16.1602 -4.48,-22.461 C 785.305,21.1602 781.172,15.9883 775.898,11.9492 770.617,7.89844 764.375,4.89063 757.18,2.94141 749.973,0.980469 742.082,0 733.516,0 729.57,0 725.539,0.28125 721.406,0.808594 717.266,1.35938 713.332,2.08203 709.57,3 c -3.75,0.92188 -7.148,1.96094 -10.175,3.12891 -3.036,1.17187 -5.43,2.33984 -7.168,3.5 V 28.2695 c 2.726,-1.4882 5.8,-2.8711 9.211,-4.1289 3.417,-1.25 6.941,-2.3086 10.585,-3.1797 3.633,-0.8789 7.313,-1.5625 11.024,-2.0703 3.723,-0.5 7.207,-0.75 10.469,-0.75 5.304,0 10.371,0.5 15.187,1.5 4.813,1.0078 9.043,2.668 12.684,5.0078 3.633,2.3321 6.515,5.5235 8.644,9.5704 2.117,4.0429 3.184,9.1132 3.184,15.2109 0,5 -0.93,9.1289 -2.785,12.3789 -1.864,3.25 -4.344,5.9531 -7.45,8.0703 -3.117,2.1211 -6.699,3.8516 -10.753,5.1914 -4.051,1.3399 -8.321,2.5899 -12.793,3.75 -5.918,1.5 -11.7,3.1914 -17.352,5.0703 -5.644,1.8789 -10.684,4.4805 -15.129,7.8203 -4.433,3.3399 -7.996,7.6407 -10.691,12.8911 -2.688,5.257 -4.035,11.957 -4.035,20.148 0,8.5 1.418,15.82 4.238,21.949 2.832,6.133 6.66,11.199 11.496,15.211 4.824,4 10.391,6.961 16.68,8.879 6.297,1.922 13.007,2.871 20.136,2.871 8.114,0 15.672,-0.851 22.696,-2.551 7.011,-1.718 13.437,-3.949 19.277,-6.699 v -18.898 c -6.301,2.918 -12.793,5.297 -19.512,7.136 -6.711,1.832 -13.898,2.793 -21.554,2.872 -5.762,0 -10.762,-0.68 -15.008,-2.059 -4.25,-1.383 -7.774,-3.34 -10.578,-5.883 -2.813,-2.547 -4.891,-5.629 -6.258,-9.258 -1.367,-3.629 -2.051,-7.648 -2.051,-12.082" /><path
         id="path50"
         style="fill:#231f20;fill-opacity:1;fill-rule:nonzero;stroke:none"
         d="M 902.031,3.12891 H 883.488 V 152.148 h -50.84 v 18.391 h 120.223 v -18.391 h -50.84 V 3.12891" /><path
         id="path52"
         style="fill:#231f20;fill-opacity:1;fill-rule:nonzero;stroke:none"
         d="m 1040.64,144.512 c -6.79,-20.84 -13.28,-39.774 -19.46,-56.8011 l -5.68,-15.7617 h 50.44 l -5.77,15.75 c -6.24,17.3318 -12.6,36.2808 -19.08,56.8128 z M 970.801,3.12891 1032.79,170.539 h 16.04 L 1110.82,3.12891 h -20.14 l -18.17,50.42189 h -63.63 L 990.703,3.12891 h -19.902" /><path
         id="path54"
         style="fill:#231f20;fill-opacity:1;fill-rule:nonzero;stroke:none"
         d="m 1253.29,70.8086 h -34.7 v 18.4023 h 53.24 V 8.25 c -1.6,-0.91016 -3.93,-1.85156 -7,-2.80859 -3.07,-0.96094 -6.58,-1.85157 -10.51,-2.67969 C 1250.37,1.92188 1246.14,1.25 1241.63,0.75 1237.12,0.25 1232.67,0 1228.26,0 c -13.03,0 -24.55,1.96094 -34.52,5.87891 -9.97,3.92187 -18.33,9.46089 -25.08,16.64059 -6.75,7.1719 -11.86,15.8907 -15.35,26.1524 -3.5,10.2578 -5.23,21.6797 -5.23,34.2773 0,13.6797 1.9,26.1098 5.73,37.2888 3.82,11.184 9.35,20.731 16.6,28.653 7.26,7.929 16.02,14.031 26.29,18.328 10.27,4.301 21.59,6.441 33.95,6.441 3.33,0 6.67,-0.14 10.01,-0.441 3.33,-0.289 6.53,-0.699 9.56,-1.25 3.03,-0.528 5.84,-1.18 8.41,-1.93 2.58,-0.75 4.74,-1.539 6.49,-2.379 v -18.019 c -4.55,1.668 -9.79,3.07 -15.7,4.199 -5.91,1.121 -11.83,1.68 -17.74,1.68 -8.65,0 -16.89,-1.438 -24.75,-4.321 -7.84,-2.871 -14.76,-7.23 -20.75,-13.058 -5.99,-5.84 -10.77,-13.172 -14.33,-21.969 -3.57,-8.793 -5.35,-19.1212 -5.35,-30.9611 0,-11.5898 1.48,-21.6015 4.44,-30.0312 2.96,-8.4297 7.15,-15.3906 12.56,-20.8984 5.42,-5.5 11.99,-9.5704 19.71,-12.1993 7.72,-2.6211 16.31,-3.9414 25.77,-3.9414 4.37,0 8.69,0.25 12.95,0.75 4.27,0.5078 8.05,1.211 11.36,2.1289 v 49.7891" /><path
         id="path56"
         style="fill:#231f20;fill-opacity:1;fill-rule:nonzero;stroke:none"
         d="m 1349.81,21.5195 h 78.02 V 3.12891 h -96.57 V 170.539 h 92.36 v -18.391 h -73.81 V 98.1016 h 65.62 V 79.6992 h -65.62 V 21.5195" /><path
         id="path58"
         style="fill:#231f20;fill-opacity:1;fill-rule:nonzero;stroke:none"
         d="m 1860.61,87.5781 c 0,16.1019 -3.23,29.1599 -9.68,39.1719 -6.46,10.012 -15.72,17.102 -27.78,21.27 -4.61,1.582 -9.76,2.671 -15.44,3.25 -5.7,0.589 -12.11,0.878 -19.26,0.878 h -14.17 V 21.5195 h 14.17 c 7.15,0 13.56,0.2891 19.26,0.8711 5.68,0.5899 10.83,1.668 15.44,3.2578 12.06,4.1719 21.32,11.4727 27.78,21.8907 6.45,10.4297 9.68,23.7812 9.68,40.039 z m 18.42,0 c 0,-9.7578 -1.1,-18.9375 -3.3,-27.5195 -2.19,-8.5898 -5.51,-16.3281 -9.95,-23.207 -4.43,-6.8907 -9.97,-12.8203 -16.6,-17.8321 -6.64,-5 -14.39,-8.8906 -23.26,-11.62887 -5.09,-1.60157 -10.59,-2.69922 -16.5,-3.33204 -5.91,-0.61718 -12.32,-0.92968 -19.22,-0.92968 h -34.47 V 170.539 h 34.81 c 6.9,0 13.31,-0.309 19.23,-0.937 5.9,-0.622 11.4,-1.743 16.49,-3.321 8.87,-2.75 16.62,-6.59 23.26,-11.5 6.63,-4.922 12.13,-10.742 16.49,-17.461 4.36,-6.711 7.62,-14.261 9.78,-22.648 2.16,-8.383 3.24,-17.4103 3.24,-27.0939" /><path
         id="path60"
         style="fill:#231f20;fill-opacity:1;fill-rule:nonzero;stroke:none"
         d="m 1952.46,21.5195 h 78.03 V 3.12891 h -96.57 V 170.539 h 92.36 v -18.391 h -73.82 V 98.1016 h 65.63 V 79.6992 h -65.63 V 21.5195" /><path
         id="path62"
         style="fill:#231f20;fill-opacity:1;fill-rule:nonzero;stroke:none"
         d="m 2157.77,155.52 c -8.51,0 -16.48,-1.469 -23.89,-4.43 -7.4,-2.969 -13.84,-7.391 -19.29,-13.27 -5.45,-5.879 -9.76,-13.179 -12.9,-21.898 -3.14,-8.711 -4.72,-18.8712 -4.72,-30.4611 0,-11.5117 1.46,-21.5 4.38,-29.9726 2.91,-8.4688 7.06,-15.4766 12.43,-21.0195 5.37,-5.5469 11.85,-9.6485 19.4,-12.3282 7.56,-2.6718 15.99,-4 25.28,-4 2.53,0 5.21,0.1407 8.05,0.4414 2.85,0.2891 5.71,0.7071 8.58,1.25 2.88,0.5391 5.68,1.168 8.41,1.8789 2.72,0.6993 5.16,1.4805 7.31,2.3204 V 6.01172 C 2186.34,4.08203 2181.14,2.60938 2175.23,1.55859 2169.32,0.519531 2163.24,0 2157.03,0 c -12.66,0 -23.88,1.94141 -33.67,5.80859 -9.79,3.89063 -17.99,9.46091 -24.63,16.71091 -6.63,7.2618 -11.66,16.1211 -15.07,26.5899 -3.42,10.4609 -5.11,22.3398 -5.11,35.6015 0,13.0079 1.79,24.9801 5.4,35.9101 3.6,10.93 8.79,20.309 15.58,28.149 6.79,7.832 15.01,13.949 24.68,18.332 9.67,4.378 20.54,6.558 32.59,6.558 3.18,0 6.34,-0.14 9.44,-0.441 3.11,-0.289 6.08,-0.699 8.93,-1.25 2.85,-0.528 5.48,-1.18 7.91,-1.93 2.42,-0.75 4.51,-1.539 6.25,-2.379 v -18.019 c -4.6,1.668 -9.63,3.07 -15.08,4.199 -5.46,1.121 -10.95,1.68 -16.48,1.68" /><path
         id="path64"
         style="fill:#231f20;fill-opacity:1;fill-rule:nonzero;stroke:none"
         d="m 2361.05,86.7109 c 0,11.2579 -1.35,21.1801 -4.03,29.7771 -2.68,8.59 -6.38,15.762 -11.1,21.524 -4.72,5.75 -10.27,10.109 -16.67,13.078 -6.41,2.961 -13.28,4.43 -20.65,4.43 -7.35,0 -14.23,-1.469 -20.64,-4.43 -6.4,-2.969 -11.95,-7.328 -16.67,-13.078 -4.72,-5.762 -8.42,-12.934 -11.09,-21.524 -2.69,-8.597 -4.03,-18.5192 -4.03,-29.7771 0,-11.2617 1.36,-21.1718 4.08,-29.7226 2.72,-8.5469 6.44,-15.6992 11.16,-21.457 4.71,-5.75 10.27,-10.0899 16.67,-13.0118 6.4,-2.9179 13.32,-4.3789 20.76,-4.3789 7.35,0 14.2,1.461 20.53,4.3789 6.31,2.9219 11.83,7.2618 16.55,13.0118 4.72,5.7578 8.42,12.9101 11.1,21.457 2.68,8.5508 4.03,18.4609 4.03,29.7226 z m 18.42,0 c 0,-12.6796 -1.66,-24.3203 -4.97,-34.9101 -3.31,-10.6016 -8.04,-19.7305 -14.22,-27.4024 C 2354.11,16.7188 2346.69,10.7305 2338,6.44922 2329.31,2.14844 2319.59,0 2308.83,0 c -11.13,0 -21.1,2.14844 -29.9,6.44922 -8.8,4.28128 -16.25,10.26958 -22.35,17.94918 -6.09,7.6719 -10.75,16.8008 -13.98,27.4024 -3.24,10.5898 -4.86,22.2305 -4.86,34.9101 0,12.7579 1.67,24.4491 5.02,35.0981 3.35,10.632 8.09,19.781 14.22,27.461 6.14,7.679 13.56,13.652 22.29,17.949 8.72,4.301 18.5,6.441 29.33,6.441 11.07,0 20.97,-2.14 29.74,-6.441 8.76,-4.297 16.19,-10.27 22.29,-17.949 6.09,-7.68 10.76,-16.829 13.99,-27.461 3.23,-10.649 4.85,-22.3402 4.85,-35.0981" /><path
         id="path66"
         style="fill:#231f20;fill-opacity:1;fill-rule:nonzero;stroke:none"
         d="M 2454.03,152.148 V 90.8281 h 18.31 c 5.69,0 10.54,0.2227 14.56,0.6407 4.02,0.4101 7.62,1.1601 10.81,2.2421 6.44,2.168 11.41,5.6407 14.9,10.3911 3.48,4.75 5.23,10.968 5.23,18.648 -0.08,7.16 -1.75,12.949 -5.01,17.32 -3.25,4.391 -7.77,7.532 -13.53,9.442 -2.73,0.918 -5.99,1.597 -9.78,2.008 -3.8,0.421 -8.61,0.628 -14.45,0.628 z m 0,-79.7066 V 3.12891 h -18.54 V 170.539 h 39.42 c 6.67,0 12.34,-0.269 16.99,-0.809 4.66,-0.55 8.92,-1.402 12.79,-2.57 10.59,-3.172 18.7,-8.57 24.3,-16.199 5.61,-7.641 8.41,-17.172 8.41,-28.59 0,-6.762 -0.98,-12.812 -2.95,-18.152 -1.97,-5.3284 -4.74,-9.9573 -8.31,-13.887 -3.56,-3.9101 -7.83,-7.1211 -12.79,-9.6211 -4.97,-2.5117 -10.49,-4.3515 -16.55,-5.5117 v -0.5 l 45.05,-71.57029 h -18.55 l -46.86,69.31249 h -22.41" /><path
         id="path68"
         style="fill:#231f20;fill-opacity:1;fill-rule:nonzero;stroke:none"
         d="m 2649.73,144.512 c -6.79,-20.84 -13.27,-39.774 -19.46,-56.8011 l -5.68,-15.7617 h 50.44 l -5.77,15.75 c -6.24,17.3318 -12.6,36.2808 -19.07,56.8128 z m -69.84,-141.38309 62,167.41009 h 16.03 L 2719.91,3.12891 h -20.13 L 2681.6,53.5508 h -63.63 L 2599.8,3.12891 h -19.91" /><path
         id="path70"
         style="fill:#231f20;fill-opacity:1;fill-rule:nonzero;stroke:none"
         d="m 2807.23,3.12891 h -18.55 V 152.148 h -50.84 v 18.391 h 120.23 v -18.391 h -50.84 V 3.12891" /><path
         id="path72"
         style="fill:#231f20;fill-opacity:1;fill-rule:nonzero;stroke:none"
         d="m 2922.39,21.5195 h 78.03 V 3.12891 h -96.57 V 170.539 h 92.36 v -18.391 h -73.82 V 98.1016 h 65.63 V 79.6992 h -65.63 V 21.5195" /><path
         id="path74"
         style="fill:#231f20;fill-opacity:1;fill-rule:nonzero;stroke:none"
         d="m 3436.83,86.7109 c 0,11.2579 -1.35,21.1801 -4.03,29.7771 -2.68,8.59 -6.38,15.762 -11.1,21.524 -4.72,5.75 -10.27,10.109 -16.67,13.078 -6.41,2.961 -13.28,4.43 -20.64,4.43 -7.36,0 -14.24,-1.469 -20.65,-4.43 -6.4,-2.969 -11.95,-7.328 -16.67,-13.078 -4.72,-5.762 -8.42,-12.934 -11.09,-21.524 -2.69,-8.597 -4.03,-18.5192 -4.03,-29.7771 0,-11.2617 1.36,-21.1718 4.09,-29.7226 2.71,-8.5469 6.43,-15.6992 11.15,-21.457 4.71,-5.75 10.27,-10.0899 16.67,-13.0118 6.4,-2.9179 13.32,-4.3789 20.76,-4.3789 7.35,0 14.2,1.461 20.53,4.3789 6.32,2.9219 11.83,7.2618 16.55,13.0118 4.72,5.7578 8.42,12.9101 11.1,21.457 2.68,8.5508 4.03,18.4609 4.03,29.7226 z m 18.42,0 c 0,-12.6796 -1.66,-24.3203 -4.97,-34.9101 -3.31,-10.6016 -8.04,-19.7305 -14.21,-27.4024 -6.18,-7.6796 -13.6,-13.6679 -22.29,-17.94918 C 3405.09,2.14844 3395.37,0 3384.61,0 c -11.13,0 -21.1,2.14844 -29.9,6.44922 -8.8,4.28128 -16.25,10.26958 -22.35,17.94918 -6.09,7.6719 -10.75,16.8008 -13.98,27.4024 -3.24,10.5898 -4.85,22.2305 -4.85,34.9101 0,12.7579 1.67,24.4491 5.02,35.0981 3.35,10.632 8.08,19.781 14.21,27.461 6.14,7.679 13.56,13.652 22.29,17.949 8.72,4.301 18.51,6.441 29.34,6.441 11.06,0 20.96,-2.14 29.73,-6.441 8.76,-4.297 16.19,-10.27 22.29,-17.949 6.09,-7.68 10.76,-16.829 13.99,-27.461 3.23,-10.649 4.85,-22.3402 4.85,-35.0981" /><path
         id="path76"
         style="fill:#231f20;fill-opacity:1;fill-rule:nonzero;stroke:none"
         d="M 3529.82,152.148 V 90.8281 h 18.32 c 5.68,0 10.53,0.2227 14.56,0.6407 4.01,0.4101 7.61,1.1601 10.8,2.2421 6.44,2.168 11.41,5.6407 14.9,10.3911 3.49,4.75 5.23,10.968 5.23,18.648 -0.07,7.16 -1.74,12.949 -5.01,17.32 -3.25,4.391 -7.77,7.532 -13.53,9.442 -2.73,0.918 -5.99,1.597 -9.78,2.008 -3.8,0.421 -8.61,0.628 -14.45,0.628 z m 0,-79.7066 V 3.12891 h -18.54 V 170.539 h 39.42 c 6.67,0 12.34,-0.269 17,-0.809 4.65,-0.55 8.91,-1.402 12.78,-2.57 10.59,-3.172 18.7,-8.57 24.31,-16.199 5.6,-7.641 8.4,-17.172 8.4,-28.59 0,-6.762 -0.98,-12.812 -2.95,-18.152 -1.97,-5.3284 -4.74,-9.9573 -8.31,-13.887 -3.56,-3.9101 -7.83,-7.1211 -12.79,-9.6211 -4.97,-2.5117 -10.49,-4.3515 -16.55,-5.5117 v -0.5 l 45.05,-71.57029 h -18.55 l -46.86,69.31249 h -22.41" /><path
         id="path78"
         style="fill:#231f20;fill-opacity:1;fill-rule:nonzero;stroke:none"
         d="m 3770.57,70.8086 h -34.7 v 18.4023 h 53.23 V 8.25 c -1.59,-0.91016 -3.92,-1.85156 -6.99,-2.80859 -3.08,-0.96094 -6.58,-1.85157 -10.52,-2.67969 C 3767.65,1.92188 3763.42,1.25 3758.91,0.75 3754.4,0.25 3749.94,0 3745.54,0 c -13.04,0 -24.55,1.96094 -34.52,5.87891 -9.97,3.92187 -18.33,9.46089 -25.08,16.64059 -6.75,7.1719 -11.87,15.8907 -15.35,26.1524 -3.5,10.2578 -5.24,21.6797 -5.24,34.2773 0,13.6797 1.91,26.1098 5.73,37.2888 3.82,11.184 9.36,20.731 16.61,28.653 7.25,7.929 16.01,14.031 26.29,18.328 10.27,4.301 21.59,6.441 33.95,6.441 3.33,0 6.67,-0.14 10.01,-0.441 3.33,-0.289 6.52,-0.699 9.55,-1.25 3.04,-0.528 5.84,-1.18 8.42,-1.93 2.58,-0.75 4.74,-1.539 6.48,-2.379 v -18.019 c -4.55,1.668 -9.78,3.07 -15.69,4.199 -5.92,1.121 -11.84,1.68 -17.74,1.68 -8.66,0 -16.9,-1.438 -24.75,-4.321 -7.84,-2.871 -14.77,-7.23 -20.75,-13.058 -6,-5.84 -10.77,-13.172 -14.34,-21.969 -3.56,-8.793 -5.34,-19.1212 -5.34,-30.9611 0,-11.5898 1.47,-21.6015 4.43,-30.0312 2.96,-8.4297 7.15,-15.3906 12.56,-20.8984 5.42,-5.5 11.99,-9.5704 19.72,-12.1993 7.71,-2.6211 16.31,-3.9414 25.76,-3.9414 4.38,0 8.69,0.25 12.96,0.75 4.27,0.5078 8.05,1.211 11.36,2.1289 v 49.7891" /><path
         id="path80"
         style="fill:#231f20;fill-opacity:1;fill-rule:nonzero;stroke:none"
         d="m 3903.02,144.512 c -6.79,-20.84 -13.27,-39.774 -19.45,-56.8011 l -5.69,-15.7617 h 50.44 l -5.77,15.75 c -6.24,17.3318 -12.6,36.2808 -19.07,56.8128 z m -69.84,-141.38309 62,167.41009 h 16.03 L 3973.2,3.12891 h -20.13 l -18.18,50.42189 h -63.63 L 3853.09,3.12891 h -19.91" /><path
         id="path82"
         style="fill:#231f20;fill-opacity:1;fill-rule:nonzero;stroke:none"
         d="m 4096.57,77.1992 c 9.33,-14.7695 18.55,-29.9492 27.64,-45.5508 h 0.68 c -0.98,16.2735 -1.47,32.8633 -1.47,49.8125 v 89.0781 h 18.65 V 3.12891 h -18.54 l -59.72,93.33989 c -10.31,16.2692 -19.52,31.4412 -27.64,45.5432 h -0.68 c 0.99,-15.262 1.48,-33.071 1.48,-53.4222 V 3.12891 h -18.54 V 170.539 h 18.43 l 59.71,-93.3398" /><path
         id="path84"
         style="fill:#231f20;fill-opacity:1;fill-rule:nonzero;stroke:none"
         d="M 4202.52,3.12891 V 170.539 h 18.55 V 3.12891 h -18.55" /><path
         id="path86"
         style="fill:#231f20;fill-opacity:1;fill-rule:nonzero;stroke:none"
         d="m 4296.42,126.238 c 0,-4.918 0.9,-8.976 2.72,-12.187 1.82,-3.223 4.25,-5.86 7.32,-7.942 3.06,-2.089 6.62,-3.8 10.66,-5.14 4.04,-1.3284 8.26,-2.5901 12.65,-3.7502 5.89,-1.5782 11.7,-3.3399 17.41,-5.25 5.7,-1.9297 10.79,-4.5782 15.25,-7.9493 4.47,-3.3789 8.08,-7.7812 10.83,-13.2109 2.77,-5.418 4.14,-12.3789 4.14,-20.8867 0,-8.6836 -1.49,-16.1602 -4.48,-22.461 -2.99,-6.3007 -7.12,-11.4726 -12.39,-15.5117 C 4355.24,7.89844 4349,4.89063 4341.81,2.94141 4334.6,0.980469 4326.71,0 4318.15,0 4314.2,0 4310.17,0.28125 4306.04,0.808594 4301.9,1.35938 4297.96,2.08203 4294.2,3 c -3.75,0.92188 -7.15,1.96094 -10.18,3.12891 -3.03,1.17187 -5.43,2.33984 -7.16,3.5 V 28.2695 c 2.72,-1.4882 5.8,-2.8711 9.21,-4.1289 3.41,-1.25 6.94,-2.3086 10.58,-3.1797 3.63,-0.8789 7.32,-1.5625 11.03,-2.0703 3.72,-0.5 7.2,-0.75 10.47,-0.75 5.3,0 10.37,0.5 15.18,1.5 4.82,1.0078 9.04,2.668 12.69,5.0078 3.63,2.3321 6.51,5.5235 8.64,9.5704 2.12,4.0429 3.18,9.1132 3.18,15.2109 0,5 -0.93,9.1289 -2.78,12.3789 -1.87,3.25 -4.35,5.9531 -7.45,8.0703 -3.12,2.1211 -6.7,3.8516 -10.75,5.1914 -4.06,1.3399 -8.32,2.5899 -12.8,3.75 -5.91,1.5 -11.7,3.1914 -17.35,5.0703 -5.64,1.8789 -10.68,4.4805 -15.13,7.8203 -4.43,3.3399 -8,7.6407 -10.69,12.8911 -2.69,5.257 -4.03,11.957 -4.03,20.148 0,8.5 1.41,15.82 4.23,21.949 2.84,6.133 6.66,11.199 11.5,15.211 4.82,4 10.39,6.961 16.68,8.879 6.3,1.922 13.01,2.871 20.13,2.871 8.12,0 15.68,-0.851 22.7,-2.551 7.01,-1.718 13.44,-3.949 19.28,-6.699 v -18.898 c -6.3,2.918 -12.8,5.297 -19.51,7.136 -6.71,1.832 -13.9,2.793 -21.56,2.872 -5.76,0 -10.76,-0.68 -15.01,-2.059 -4.24,-1.383 -7.77,-3.34 -10.57,-5.883 -2.82,-2.547 -4.9,-5.629 -6.26,-9.258 -1.37,-3.629 -2.05,-7.648 -2.05,-12.082" /><path
         id="path88"
         style="fill:#231f20;fill-opacity:1;fill-rule:nonzero;stroke:none"
         d="m 4450.62,21.5195 h 78.02 V 3.12891 h -96.57 V 170.539 h 92.36 v -18.391 h -73.81 V 98.1016 h 65.62 V 79.6992 h -65.62 V 21.5195" /><path
         id="path90"
         style="fill:#231f20;fill-opacity:1;fill-rule:nonzero;stroke:none"
         d="m 1614.92,86.832 c 0,-13.1132 -10.63,-23.7422 -23.74,-23.7422 -13.11,0 -23.74,10.629 -23.74,23.7422 0,13.1094 10.63,23.738 23.74,23.738 13.11,0 23.74,-10.6286 23.74,-23.738" /><path
         id="path92"
         style="fill:#231f20;fill-opacity:1;fill-rule:nonzero;stroke:none"
         d="m 3185.69,86.832 c 0,-13.1132 -10.62,-23.7422 -23.73,-23.7422 -13.11,0 -23.74,10.629 -23.74,23.7422 0,13.1094 10.63,23.738 23.74,23.738 13.11,0 23.73,-10.6286 23.73,-23.738" /></g></g></svg>